<mxfile host="app.diagrams.net" modified="2023-04-03T12:00:00.000Z" agent="5.0 (Macintosh)" etag="abc123" version="15.0.0" type="device">
  <diagram id="prtHgNgQTEPvFCAcTncT" name="Application Flow">
    <mxGraphModel dx="1422" dy="798" grid="1" gridSize="10" guides="1" tooltips="1" connect="1" arrows="1" fold="1" page="1" pageScale="1" pageWidth="1169" pageHeight="827" math="0" shadow="0">
      <root>
        <mxCell id="0" />
        <mxCell id="1" parent="0" />
        
        <!-- Title -->
        <mxCell id="title" value="Data Flow in Banking Transactions Application" style="text;html=1;strokeColor=none;fillColor=none;align=center;verticalAlign=middle;rounded=0;fontStyle=1;fontSize=16;" vertex="1" parent="1">
          <mxGeometry x="284.5" y="40" width="600" height="30" as="geometry" />
        </mxCell>
        
        <!-- Application Layers -->
        <mxCell id="layers" value="Application Layers" style="swimlane;fontStyle=1;align=center;verticalAlign=top;childLayout=stackLayout;horizontal=1;startSize=30;horizontalStack=0;resizeParent=1;resizeParentMax=0;resizeLast=0;collapsible=1;marginBottom=0;fillColor=#dae8fc;strokeColor=#6c8ebf;" vertex="1" parent="1">
          <mxGeometry x="40" y="100" width="200" height="180" as="geometry" />
        </mxCell>
        <mxCell id="ui_layer" value="+ UI (Screens and Components)" style="text;strokeColor=none;fillColor=none;align=left;verticalAlign=top;spacingLeft=4;spacingRight=4;overflow=hidden;rotatable=0;points=[[0,0.5],[1,0.5]];portConstraint=eastwest;" vertex="1" parent="layers">
          <mxGeometry y="30" width="200" height="30" as="geometry" />
        </mxCell>
        <mxCell id="store_layer" value="+ Store (MobX - TransactionStore)" style="text;strokeColor=none;fillColor=none;align=left;verticalAlign=top;spacingLeft=4;spacingRight=4;overflow=hidden;rotatable=0;points=[[0,0.5],[1,0.5]];portConstraint=eastwest;" vertex="1" parent="layers">
          <mxGeometry y="60" width="200" height="30" as="geometry" />
        </mxCell>
        <mxCell id="db_layer" value="+ Local Database (SQLite)" style="text;strokeColor=none;fillColor=none;align=left;verticalAlign=top;spacingLeft=4;spacingRight=4;overflow=hidden;rotatable=0;points=[[0,0.5],[1,0.5]];portConstraint=eastwest;" vertex="1" parent="layers">
          <mxGeometry y="90" width="200" height="30" as="geometry" />
        </mxCell>
        <mxCell id="api_layer" value="+ API (Remote Server)" style="text;strokeColor=none;fillColor=none;align=left;verticalAlign=top;spacingLeft=4;spacingRight=4;overflow=hidden;rotatable=0;points=[[0,0.5],[1,0.5]];portConstraint=eastwest;" vertex="1" parent="layers">
          <mxGeometry y="120" width="200" height="30" as="geometry" />
        </mxCell>
        
        <!-- Main Flow -->
        <mxCell id="main_flow" value="Main Data Flow" style="swimlane;fontStyle=1;align=center;verticalAlign=top;childLayout=stackLayout;horizontal=1;startSize=30;horizontalStack=0;resizeParent=1;resizeParentMax=0;resizeLast=0;collapsible=1;marginBottom=0;fillColor=#d5e8d4;strokeColor=#82b366;" vertex="1" parent="1">
          <mxGeometry x="300" y="100" width="840" height="180" as="geometry" />
        </mxCell>
        
        <!-- Step 1: Initialization -->
        <mxCell id="step1" value="1. Initialization" style="rounded=1;whiteSpace=wrap;html=1;fillColor=#f5f5f5;strokeColor=#666666;fontColor=#333333;" vertex="1" parent="main_flow">
          <mxGeometry x="40" y="40" width="120" height="60" as="geometry" />
        </mxCell>
        <mxCell id="step1_desc" value="User selects an account&#xa;TransactionStore.setAccount(accountId)&#xa;- Clears memory&#xa;- Resets state&#xa;- Initiates hydration" style="text;strokeColor=none;fillColor=none;align=left;verticalAlign=top;spacingLeft=4;spacingRight=4;overflow=hidden;rotatable=0;points=[[0,0.5],[1,0.5]];portConstraint=eastwest;" vertex="1" parent="main_flow">
          <mxGeometry x="40" y="110" width="120" height="60" as="geometry" />
        </mxCell>
        
        <!-- Step 2: Memory Hydration -->
        <mxCell id="step2" value="2. Memory Hydration" style="rounded=1;whiteSpace=wrap;html=1;fillColor=#f5f5f5;strokeColor=#666666;fontColor=#333333;" vertex="1" parent="main_flow">
          <mxGeometry x="200" y="40" width="120" height="60" as="geometry" />
        </mxCell>
        <mxCell id="step2_desc" value="TransactionStore.hydrateMemory()&#xa;- Loads data in batches&#xa;- Sorts by date&#xa;- Applies filters&#xa;- Updates UI" style="text;strokeColor=none;fillColor=none;align=left;verticalAlign=top;spacingLeft=4;spacingRight=4;overflow=hidden;rotatable=0;points=[[0,0.5],[1,0.5]];portConstraint=eastwest;" vertex="1" parent="main_flow">
          <mxGeometry x="200" y="110" width="120" height="60" as="geometry" />
        </mxCell>
        
        <!-- Step 3: Synchronization -->
        <mxCell id="step3" value="3. Synchronization" style="rounded=1;whiteSpace=wrap;html=1;fillColor=#f5f5f5;strokeColor=#666666;fontColor=#333333;" vertex="1" parent="main_flow">
          <mxGeometry x="360" y="40" width="120" height="60" as="geometry" />
        </mxCell>
        <mxCell id="step3_desc" value="TransactionStore.syncNewTransactions()&#xa;- Verifies last transaction&#xa;- Gets data from API&#xa;- Processes updates&#xa;- Updates memory and DB" style="text;strokeColor=none;fillColor=none;align=left;verticalAlign=top;spacingLeft=4;spacingRight=4;overflow=hidden;rotatable=0;points=[[0,0.5],[1,0.5]];portConstraint=eastwest;" vertex="1" parent="main_flow">
          <mxGeometry x="360" y="110" width="120" height="60" as="geometry" />
        </mxCell>
        
        <!-- Step 4: Periodic Synchronization -->
        <mxCell id="step4" value="4. Periodic Synchronization" style="rounded=1;whiteSpace=wrap;html=1;fillColor=#f5f5f5;strokeColor=#666666;fontColor=#333333;" vertex="1" parent="main_flow">
          <mxGeometry x="520" y="40" width="120" height="60" as="geometry" />
        </mxCell>
        <mxCell id="step4_desc" value="TransactionStore.startPeriodicSync()&#xa;- 60-second interval&#xa;- Verifies sync state&#xa;- Retries on error&#xa;- Handles pending syncs" style="text;strokeColor=none;fillColor=none;align=left;verticalAlign=top;spacingLeft=4;spacingRight=4;overflow=hidden;rotatable=0;points=[[0,0.5],[1,0.5]];portConstraint=eastwest;" vertex="1" parent="main_flow">
          <mxGeometry x="520" y="110" width="120" height="60" as="geometry" />
        </mxCell>
        
        <!-- Step 5: Search and Filtering -->
        <mxCell id="step5" value="5. Search and Filtering" style="rounded=1;whiteSpace=wrap;html=1;fillColor=#f5f5f5;strokeColor=#666666;fontColor=#333333;" vertex="1" parent="main_flow">
          <mxGeometry x="680" y="40" width="120" height="60" as="geometry" />
        </mxCell>
        <mxCell id="step5_desc" value="TransactionStore.setSearchQuery()&#xa;- Filters in memory&#xa;- 300ms debounce&#xa;- Updates UI&#xa;- No API calls needed" style="text;strokeColor=none;fillColor=none;align=left;verticalAlign=top;spacingLeft=4;spacingRight=4;overflow=hidden;rotatable=0;points=[[0,0.5],[1,0.5]];portConstraint=eastwest;" vertex="1" parent="main_flow">
          <mxGeometry x="680" y="110" width="120" height="60" as="geometry" />
        </mxCell>
        
        <!-- Flow arrows -->
        <mxCell id="arrow1" value="" style="endArrow=classic;html=1;exitX=1;exitY=0.5;exitDx=0;exitDy=0;entryX=0;entryY=0.5;entryDx=0;entryDy=0;" edge="1" parent="main_flow" source="step1" target="step2">
          <mxGeometry width="50" height="50" relative="1" as="geometry">
            <mxPoint x="390" y="400" as="sourcePoint" />
            <mxPoint x="440" y="350" as="targetPoint" />
          </mxGeometry>
        </mxCell>
        <mxCell id="arrow2" value="" style="endArrow=classic;html=1;exitX=1;exitY=0.5;exitDx=0;exitDy=0;entryX=0;entryY=0.5;entryDx=0;entryDy=0;" edge="1" parent="main_flow" source="step2" target="step3">
          <mxGeometry width="50" height="50" relative="1" as="geometry">
            <mxPoint x="390" y="400" as="sourcePoint" />
            <mxPoint x="440" y="350" as="targetPoint" />
          </mxGeometry>
        </mxCell>
        <mxCell id="arrow3" value="" style="endArrow=classic;html=1;exitX=1;exitY=0.5;exitDx=0;exitDy=0;entryX=0;entryY=0.5;entryDx=0;entryDy=0;" edge="1" parent="main_flow" source="step3" target="step4">
          <mxGeometry width="50" height="50" relative="1" as="geometry">
            <mxPoint x="390" y="400" as="sourcePoint" />
            <mxPoint x="440" y="350" as="targetPoint" />
          </mxGeometry>
        </mxCell>
        <mxCell id="arrow4" value="" style="endArrow=classic;html=1;exitX=1;exitY=0.5;exitDx=0;exitDy=0;entryX=0;entryY=0.5;entryDx=0;entryDy=0;" edge="1" parent="main_flow" source="step4" target="step5">
          <mxGeometry width="50" height="50" relative="1" as="geometry">
            <mxPoint x="390" y="400" as="sourcePoint" />
            <mxPoint x="440" y="350" as="targetPoint" />
          </mxGeometry>
        </mxCell>
        
        <!-- Synchronization Detail -->
        <mxCell id="sync_detail" value="Synchronization Process Detail" style="swimlane;fontStyle=1;align=center;verticalAlign=top;childLayout=stackLayout;horizontal=1;startSize=30;horizontalStack=0;resizeParent=1;resizeParentMax=0;resizeLast=0;collapsible=1;marginBottom=0;fillColor=#ffe6cc;strokeColor=#d79b00;" vertex="1" parent="1">
          <mxGeometry x="40" y="320" width="1100" height="240" as="geometry" />
        </mxCell>
        
        <!-- Step S1: State Verification -->
        <mxCell id="sync_step1" value="S1. State Verification" style="rounded=1;whiteSpace=wrap;html=1;fillColor=#f5f5f5;strokeColor=#666666;fontColor=#333333;" vertex="1" parent="sync_detail">
          <mxGeometry x="40" y="40" width="120" height="60" as="geometry" />
        </mxCell>
        <mxCell id="sync_step1_desc" value="Verifies current state:&#xa;- IDLE: Starts synchronization&#xa;- SYNCING: Marks as pending&#xa;- ERROR: Clears error and retries" style="text;strokeColor=none;fillColor=none;align=left;verticalAlign=top;spacingLeft=4;spacingRight=4;overflow=hidden;rotatable=0;points=[[0,0.5],[1,0.5]];portConstraint=eastwest;" vertex="1" parent="sync_detail">
          <mxGeometry x="40" y="110" width="120" height="60" as="geometry" />
        </mxCell>
        
        <!-- Step S2: Last Transaction Retrieval -->
        <mxCell id="sync_step2" value="S2. Last Transaction Retrieval" style="rounded=1;whiteSpace=wrap;html=1;fillColor=#f5f5f5;strokeColor=#666666;fontColor=#333333;" vertex="1" parent="sync_detail">
          <mxGeometry x="200" y="40" width="120" height="60" as="geometry" />
        </mxCell>
        <mxCell id="sync_step2_desc" value="database.getLastTransactionId()&#xa;- Gets last transaction ID&#xa;- Stores in lastKnownTransactionId&#xa;- Used for API comparison" style="text;strokeColor=none;fillColor=none;align=left;verticalAlign=top;spacingLeft=4;spacingRight=4;overflow=hidden;rotatable=0;points=[[0,0.5],[1,0.5]];portConstraint=eastwest;" vertex="1" parent="sync_detail">
          <mxGeometry x="200" y="110" width="120" height="60" as="geometry" />
        </mxCell>
        
        <!-- Step S3: API Query -->
        <mxCell id="sync_step3" value="S3. API Query" style="rounded=1;whiteSpace=wrap;html=1;fillColor=#f5f5f5;strokeColor=#666666;fontColor=#333333;" vertex="1" parent="sync_detail">
          <mxGeometry x="360" y="40" width="120" height="60" as="geometry" />
        </mxCell>
        <mxCell id="sync_step3_desc" value="api.fetchTransactionsByAccount()&#xa;- Gets first page&#xa;- Checks for updates&#xa;- If no changes, ends&#xa;- If changes, continues" style="text;strokeColor=none;fillColor=none;align=left;verticalAlign=top;spacingLeft=4;spacingRight=4;overflow=hidden;rotatable=0;points=[[0,0.5],[1,0.5]];portConstraint=eastwest;" vertex="1" parent="sync_detail">
          <mxGeometry x="360" y="110" width="120" height="60" as="geometry" />
        </mxCell>
        
        <!-- Step S4: Page Processing -->
        <mxCell id="sync_step4" value="S4. Page Processing" style="rounded=1;whiteSpace=wrap;html=1;fillColor=#f5f5f5;strokeColor=#666666;fontColor=#333333;" vertex="1" parent="sync_detail">
          <mxGeometry x="520" y="40" width="120" height="60" as="geometry" />
        </mxCell>
        <mxCell id="sync_step4_desc" value="processTransactionPage()&#xa;- Identifies new transactions&#xa;- Identifies updated transactions&#xa;- Persists to database&#xa;- Updates memory" style="text;strokeColor=none;fillColor=none;align=left;verticalAlign=top;spacingLeft=4;spacingRight=4;overflow=hidden;rotatable=0;points=[[0,0.5],[1,0.5]];portConstraint=eastwest;" vertex="1" parent="sync_detail">
          <mxGeometry x="520" y="110" width="120" height="60" as="geometry" />
        </mxCell>
        
        <!-- Step S5: State Update -->
        <mxCell id="sync_step5" value="S5. State Update" style="rounded=1;whiteSpace=wrap;html=1;fillColor=#f5f5f5;strokeColor=#666666;fontColor=#333333;" vertex="1" parent="sync_detail">
          <mxGeometry x="680" y="40" width="120" height="60" as="geometry" />
        </mxCell>
        <mxCell id="sync_step5_desc" value="Updates final state:&#xa;- Marks as IDLE&#xa;- Updates timestamp&#xa;- Updates lastKnownTransactionId&#xa;- Checks pending syncs" style="text;strokeColor=none;fillColor=none;align=left;verticalAlign=top;spacingLeft=4;spacingRight=4;overflow=hidden;rotatable=0;points=[[0,0.5],[1,0.5]];portConstraint=eastwest;" vertex="1" parent="sync_detail">
          <mxGeometry x="680" y="110" width="120" height="60" as="geometry" />
        </mxCell>
        
        <!-- Step S6: Error Handling -->
        <mxCell id="sync_step6" value="S6. Error Handling" style="rounded=1;whiteSpace=wrap;html=1;fillColor=#f5f5f5;strokeColor=#666666;fontColor=#333333;" vertex="1" parent="sync_detail">
          <mxGeometry x="840" y="40" width="120" height="60" as="geometry" />
        </mxCell>
        <mxCell id="sync_step6_desc" value="In case of error:&#xa;- Marks as ERROR&#xa;- Stores error message&#xa;- Allows automatic retries&#xa;- Maintains existing data" style="text;strokeColor=none;fillColor=none;align=left;verticalAlign=top;spacingLeft=4;spacingRight=4;overflow=hidden;rotatable=0;points=[[0,0.5],[1,0.5]];portConstraint=eastwest;" vertex="1" parent="sync_detail">
          <mxGeometry x="840" y="110" width="120" height="60" as="geometry" />
        </mxCell>
        
        <!-- Synchronization flow arrows -->
        <mxCell id="sync_arrow1" value="" style="endArrow=classic;html=1;exitX=1;exitY=0.5;exitDx=0;exitDy=0;entryX=0;entryY=0.5;entryDx=0;entryDy=0;" edge="1" parent="sync_detail" source="sync_step1" target="sync_step2">
          <mxGeometry width="50" height="50" relative="1" as="geometry">
            <mxPoint x="390" y="400" as="sourcePoint" />
            <mxPoint x="440" y="350" as="targetPoint" />
          </mxGeometry>
        </mxCell>
        <mxCell id="sync_arrow2" value="" style="endArrow=classic;html=1;exitX=1;exitY=0.5;exitDx=0;exitDy=0;entryX=0;entryY=0.5;entryDx=0;entryDy=0;" edge="1" parent="sync_detail" source="sync_step2" target="sync_step3">
          <mxGeometry width="50" height="50" relative="1" as="geometry">
            <mxPoint x="390" y="400" as="sourcePoint" />
            <mxPoint x="440" y="350" as="targetPoint" />
          </mxGeometry>
        </mxCell>
        <mxCell id="sync_arrow3" value="" style="endArrow=classic;html=1;exitX=1;exitY=0.5;exitDx=0;exitDy=0;entryX=0;entryY=0.5;entryDx=0;entryDy=0;" edge="1" parent="sync_detail" source="sync_step3" target="sync_step4">
          <mxGeometry width="50" height="50" relative="1" as="geometry">
            <mxPoint x="390" y="400" as="sourcePoint" />
            <mxPoint x="440" y="350" as="targetPoint" />
          </mxGeometry>
        </mxCell>
        <mxCell id="sync_arrow4" value="" style="endArrow=classic;html=1;exitX=1;exitY=0.5;exitDx=0;exitDy=0;entryX=0;entryY=0.5;entryDx=0;entryDy=0;" edge="1" parent="sync_detail" source="sync_step4" target="sync_step5">
          <mxGeometry width="50" height="50" relative="1" as="geometry">
            <mxPoint x="390" y="400" as="sourcePoint" />
            <mxPoint x="440" y="350" as="targetPoint" />
          </mxGeometry>
        </mxCell>
        <mxCell id="sync_arrow5" value="" style="endArrow=classic;html=1;exitX=1;exitY=0.5;exitDx=0;exitDy=0;entryX=0;entryY=0.5;entryDx=0;entryDy=0;" edge="1" parent="sync_detail" source="sync_step5" target="sync_step6">
          <mxGeometry width="50" height="50" relative="1" as="geometry">
            <mxPoint x="390" y="400" as="sourcePoint" />
            <mxPoint x="440" y="350" as="targetPoint" />
          </mxGeometry>
        </mxCell>
        
        <!-- State Variables Detail -->
        <mxCell id="state_vars" value="State Variables in TransactionStore" style="swimlane;fontStyle=1;align=center;verticalAlign=top;childLayout=stackLayout;horizontal=1;startSize=30;horizontalStack=0;resizeParent=1;resizeParentMax=0;resizeLast=0;collapsible=1;marginBottom=0;fillColor=#e1d5e7;strokeColor=#9673a6;" vertex="1" parent="1">
          <mxGeometry x="40" y="600" width="1100" height="180" as="geometry" />
        </mxCell>
        
        <!-- Data Variables -->
        <mxCell id="data_vars" value="Data Variables" style="rounded=1;whiteSpace=wrap;html=1;fillColor=#f5f5f5;strokeColor=#666666;fontColor=#333333;" vertex="1" parent="state_vars">
          <mxGeometry x="40" y="40" width="200" height="60" as="geometry" />
        </mxCell>
        <mxCell id="data_vars_desc" value="inMemoryTransactions: Transaction[]&#xa;filteredTransactions: Transaction[]&#xa;currentAccountId: string&#xa;searchQuery: string" style="text;strokeColor=none;fillColor=none;align=left;verticalAlign=top;spacingLeft=4;spacingRight=4;overflow=hidden;rotatable=0;points=[[0,0.5],[1,0.5]];portConstraint=eastwest;" vertex="1" parent="state_vars">
          <mxGeometry x="40" y="110" width="200" height="60" as="geometry" />
        </mxCell>
        
        <!-- State Variables -->
        <mxCell id="state_vars_list" value="State Variables" style="rounded=1;whiteSpace=wrap;html=1;fillColor=#f5f5f5;strokeColor=#666666;fontColor=#333333;" vertex="1" parent="state_vars">
          <mxGeometry x="280" y="40" width="200" height="60" as="geometry" />
        </mxCell>
        <mxCell id="state_vars_desc" value="isLoading: boolean&#xa;isHydrating: boolean&#xa;allDataLoaded: boolean&#xa;syncState: SyncState (IDLE/SYNCING/ERROR)&#xa;syncError: string | null" style="text;strokeColor=none;fillColor=none;align=left;verticalAlign=top;spacingLeft=4;spacingRight=4;overflow=hidden;rotatable=0;points=[[0,0.5],[1,0.5]];portConstraint=eastwest;" vertex="1" parent="state_vars">
          <mxGeometry x="280" y="110" width="200" height="60" as="geometry" />
        </mxCell>
        
        <!-- Control Variables -->
        <mxCell id="control_vars" value="Control Variables" style="rounded=1;whiteSpace=wrap;html=1;fillColor=#f5f5f5;strokeColor=#666666;fontColor=#333333;" vertex="1" parent="state_vars">
          <mxGeometry x="520" y="40" width="200" height="60" as="geometry" />
        </mxCell>
        <mxCell id="control_vars_desc" value="page: number&#xa;pageSize: number&#xa;lastSyncTimestamp: number&#xa;lastKnownTransactionId: string | null&#xa;pendingSync: boolean" style="text;strokeColor=none;fillColor=none;align=left;verticalAlign=top;spacingLeft=4;spacingRight=4;overflow=hidden;rotatable=0;points=[[0,0.5],[1,0.5]];portConstraint=eastwest;" vertex="1" parent="state_vars">
          <mxGeometry x="520" y="110" width="200" height="60" as="geometry" />
        </mxCell>
        
        <!-- Private Variables -->
        <mxCell id="private_vars" value="Private Variables" style="rounded=1;whiteSpace=wrap;html=1;fillColor=#f5f5f5;strokeColor=#666666;fontColor=#333333;" vertex="1" parent="state_vars">
          <mxGeometry x="760" y="40" width="200" height="60" as="geometry" />
        </mxCell>
        <mxCell id="private_vars_desc" value="debouncedApplyFilters: Function&#xa;syncInterval: NodeJS.Timeout | null&#xa;syncTimeout: NodeJS.Timeout | null" style="text;strokeColor=none;fillColor=none;align=left;verticalAlign=top;spacingLeft=4;spacingRight=4;overflow=hidden;rotatable=0;points=[[0,0.5],[1,0.5]];portConstraint=eastwest;" vertex="1" parent="state_vars">
          <mxGeometry x="760" y="110" width="200" height="60" as="geometry" />
        </mxCell>
        
        <!-- Database Structure -->
        <mxCell id="db_structure" value="Database Structure" style="swimlane;fontStyle=1;align=center;verticalAlign=top;childLayout=stackLayout;horizontal=1;startSize=30;horizontalStack=0;resizeParent=1;resizeParentMax=0;resizeLast=0;collapsible=1;marginBottom=0;fillColor=#f8cecc;strokeColor=#b85450;" vertex="1" parent="1">
          <mxGeometry x="40" y="820" width="1100" height="180" as="geometry" />
        </mxCell>
        
        <!-- Transactions Table -->
        <mxCell id="transactions_table" value="Transactions Table" style="rounded=1;whiteSpace=wrap;html=1;fillColor=#f5f5f5;strokeColor=#666666;fontColor=#333333;" vertex="1" parent="db_structure">
          <mxGeometry x="40" y="40" width="200" height="60" as="geometry" />
        </mxCell>
        <mxCell id="transactions_table_desc" value="id: TEXT PRIMARY KEY&#xa;accountId: TEXT NOT NULL&#xa;description: TEXT NOT NULL&#xa;amount: REAL NOT NULL&#xa;currency: TEXT NOT NULL&#xa;type: TEXT&#xa;date: TEXT NOT NULL&#xa;syncStatus: TEXT DEFAULT 'synced'&#xa;lastModified: INTEGER&#xa;version: INTEGER DEFAULT 1&#xa;isDeleted: INTEGER DEFAULT 0" style="text;strokeColor=none;fillColor=none;align=left;verticalAlign=top;spacingLeft=4;spacingRight=4;overflow=hidden;rotatable=0;points=[[0,0.5],[1,0.5]];portConstraint=eastwest;" vertex="1" parent="db_structure">
          <mxGeometry x="40" y="110" width="200" height="60" as="geometry" />
        </mxCell>
        
        <!-- Indices -->
        <mxCell id="indices" value="Indices" style="rounded=1;whiteSpace=wrap;html=1;fillColor=#f5f5f5;strokeColor=#666666;fontColor=#333333;" vertex="1" parent="db_structure">
          <mxGeometry x="280" y="40" width="200" height="60" as="geometry" />
        </mxCell>
        <mxCell id="indices_desc" value="idx_transactions_account_date:&#xa;(accountId, date DESC, id)&#xa;&#xa;idx_transactions_sync:&#xa;(syncStatus, lastModified, id)&#xa;&#xa;idx_transactions_version:&#xa;(version, id)" style="text;strokeColor=none;fillColor=none;align=left;verticalAlign=top;spacingLeft=4;spacingRight=4;overflow=hidden;rotatable=0;points=[[0,0.5],[1,0.5]];portConstraint=eastwest;" vertex="1" parent="db_structure">
          <mxGeometry x="280" y="110" width="200" height="60" as="geometry" />
        </mxCell>
        
        <!-- Database Methods -->
        <mxCell id="db_methods" value="Database Methods" style="rounded=1;whiteSpace=wrap;html=1;fillColor=#f5f5f5;strokeColor=#666666;fontColor=#333333;" vertex="1" parent="db_structure">
          <mxGeometry x="520" y="40" width="200" height="60" as="geometry" />
        </mxCell>
        <mxCell id="db_methods_desc" value="initDatabase(): Promise&lt;SQLiteDatabase&gt;&#xa;persistTransactions(transactions, accountId): Promise&lt;void&gt;&#xa;getTransactionsByAccountId(accountId, limit?, offset?): Promise&lt;Transaction[]&gt;&#xa;getLastTransactionId(accountId): Promise&lt;string | null&gt;&#xa;getTransactionById(transactionId): Promise&lt;Transaction | null&gt;&#xa;cleanOldTransactions(): Promise&lt;void&gt;" style="text;strokeColor=none;fillColor=none;align=left;verticalAlign=top;spacingLeft=4;spacingRight=4;overflow=hidden;rotatable=0;points=[[0,0.5],[1,0.5]];portConstraint=eastwest;" vertex="1" parent="db_structure">
          <mxGeometry x="520" y="110" width="200" height="60" as="geometry" />
        </mxCell>
        
        <!-- Cache Strategy -->
        <mxCell id="cache_strategy" value="Cache Strategy" style="rounded=1;whiteSpace=wrap;html=1;fillColor=#f5f5f5;strokeColor=#666666;fontColor=#333333;" vertex="1" parent="db_structure">
          <mxGeometry x="760" y="40" width="200" height="60" as="geometry" />
        </mxCell>
        <mxCell id="cache_strategy_desc" value="1. Memory (fastest)&#xa;2. Local database&#xa;3. API (remote server)&#xa;&#xa;Synchronization:&#xa;- ID verification&#xa;- Incremental updates&#xa;- Logical deletion&#xa;- Version control" style="text;strokeColor=none;fillColor=none;align=left;verticalAlign=top;spacingLeft=4;spacingRight=4;overflow=hidden;rotatable=0;points=[[0,0.5],[1,0.5]];portConstraint=eastwest;" vertex="1" parent="db_structure">
          <mxGeometry x="760" y="110" width="200" height="60" as="geometry" />
        </mxCell>
        
      </root>
    </mxGraphModel>
  </diagram>
</mxfile> 